<svg xmlns="http://www.w3.org/2000/svg" viewBox="0 0 140 140">
  <g transform="translate(70,70)">
    
    <ellipse cx="0" cy="-32" rx="17" ry="28" fill="#F4ECF7" transform="rotate(0)"></ellipse>
    <ellipse cx="0" cy="-32" rx="17" ry="28" fill="#EDE0F0" transform="rotate(72)"></ellipse>
    <ellipse cx="0" cy="-32" rx="17" ry="28" fill="#F4ECF7" transform="rotate(144)"></ellipse>
    <ellipse cx="0" cy="-32" rx="17" ry="28" fill="#EDE0F0" transform="rotate(216)"></ellipse>
    <ellipse cx="0" cy="-32" rx="17" ry="28" fill="#F4ECF7" transform="rotate(288)"></ellipse>
    
    <ellipse cx="0" cy="-33" rx="7" ry="15" fill="#FFFFFF" opacity="0.7" transform="rotate(0)"></ellipse>
    <ellipse cx="0" cy="-33" rx="7" ry="15" fill="#FFFFFF" opacity="0.7" transform="rotate(72)"></ellipse>
    <ellipse cx="0" cy="-33" rx="7" ry="15" fill="#FFFFFF" opacity="0.7" transform="rotate(144)"></ellipse>
    <ellipse cx="0" cy="-33" rx="7" ry="15" fill="#FFFFFF" opacity="0.7" transform="rotate(216)"></ellipse>
    <ellipse cx="0" cy="-33" rx="7" ry="15" fill="#FFFFFF" opacity="0.7" transform="rotate(288)"></ellipse>
    
    <line x1="0" y1="-10" x2="0" y2="-54" stroke="#D7BDE2" stroke-width="0.7" opacity="0.5" transform="rotate(0)"></line>
    <line x1="0" y1="-10" x2="0" y2="-54" stroke="#D7BDE2" stroke-width="0.7" opacity="0.5" transform="rotate(72)"></line>
    <line x1="0" y1="-10" x2="0" y2="-54" stroke="#D7BDE2" stroke-width="0.7" opacity="0.5" transform="rotate(144)"></line>
    <line x1="0" y1="-10" x2="0" y2="-54" stroke="#D7BDE2" stroke-width="0.7" opacity="0.5" transform="rotate(216)"></line>
    <line x1="0" y1="-10" x2="0" y2="-54" stroke="#D7BDE2" stroke-width="0.7" opacity="0.5" transform="rotate(288)"></line>
    
    <ellipse cx="0" cy="-52" rx="8" ry="5" fill="#E8C8EE" opacity="0.5" transform="rotate(0)"></ellipse>
    <ellipse cx="0" cy="-52" rx="8" ry="5" fill="#E8C8EE" opacity="0.5" transform="rotate(72)"></ellipse>
    <ellipse cx="0" cy="-52" rx="8" ry="5" fill="#E8C8EE" opacity="0.5" transform="rotate(144)"></ellipse>
    <ellipse cx="0" cy="-52" rx="8" ry="5" fill="#E8C8EE" opacity="0.5" transform="rotate(216)"></ellipse>
    <ellipse cx="0" cy="-52" rx="8" ry="5" fill="#E8C8EE" opacity="0.5" transform="rotate(288)"></ellipse>
    
    <circle r="10" fill="#F5D130"></circle>
    <circle r="6" fill="#F0C520"></circle>
    
    <g stroke="#A04080" stroke-width="0.9" fill="#F5D130">
      <line x1="0" y1="-10" x2="0" y2="-24"></line><circle cx="0" cy="-25" r="2.2"></circle>
      <line x1="9.5" y1="-5.5" x2="22" y2="-13"></line><circle cx="23" cy="-14" r="2.2"></circle>
      <line x1="9.5" y1="5.5" x2="22" y2="13"></line><circle cx="23" cy="14" r="2.2"></circle>
      <line x1="0" y1="10" x2="0" y2="24"></line><circle cx="0" cy="25" r="2.2"></circle>
      <line x1="-9.5" y1="5.5" x2="-22" y2="13"></line><circle cx="-23" cy="14" r="2.2"></circle>
      <line x1="-9.5" y1="-5.5" x2="-22" y2="-13"></line><circle cx="-23" cy="-14" r="2.2"></circle>
      <line x1="5" y1="-9" x2="12" y2="-22"></line><circle cx="13" cy="-23" r="2.2"></circle>
      <line x1="-5" y1="-9" x2="-12" y2="-22"></line><circle cx="-13" cy="-23" r="2.2"></circle>
    </g>
  </g>
</svg>