<svg xmlns="http://www.w3.org/2000/svg" viewBox="0 0 140 140">
  <g transform="translate(70,70)">
    <!-- Petals -->
    <ellipse cx="0" cy="-32" rx="17" ry="28" fill="#9B59B6" transform="rotate(0)"/>
    <ellipse cx="0" cy="-32" rx="17" ry="28" fill="#8E44AD" transform="rotate(72)"/>
    <ellipse cx="0" cy="-32" rx="17" ry="28" fill="#9B59B6" transform="rotate(144)"/>
    <ellipse cx="0" cy="-32" rx="17" ry="28" fill="#8E44AD" transform="rotate(216)"/>
    <ellipse cx="0" cy="-32" rx="17" ry="28" fill="#9B59B6" transform="rotate(288)"/>
    <!-- Petal highlights -->
    <ellipse cx="0" cy="-33" rx="7" ry="15" fill="#C39BD3" opacity="0.55" transform="rotate(0)"/>
    <ellipse cx="0" cy="-33" rx="7" ry="15" fill="#C39BD3" opacity="0.55" transform="rotate(72)"/>
    <ellipse cx="0" cy="-33" rx="7" ry="15" fill="#C39BD3" opacity="0.55" transform="rotate(144)"/>
    <ellipse cx="0" cy="-33" rx="7" ry="15" fill="#C39BD3" opacity="0.55" transform="rotate(216)"/>
    <ellipse cx="0" cy="-33" rx="7" ry="15" fill="#C39BD3" opacity="0.55" transform="rotate(288)"/>
    <!-- Petal veins -->
    <line x1="0" y1="-10" x2="0" y2="-54" stroke="#76448A" stroke-width="0.7" opacity="0.4" transform="rotate(0)"/>
    <line x1="0" y1="-10" x2="0" y2="-54" stroke="#76448A" stroke-width="0.7" opacity="0.4" transform="rotate(72)"/>
    <line x1="0" y1="-10" x2="0" y2="-54" stroke="#76448A" stroke-width="0.7" opacity="0.4" transform="rotate(144)"/>
    <line x1="0" y1="-10" x2="0" y2="-54" stroke="#76448A" stroke-width="0.7" opacity="0.4" transform="rotate(216)"/>
    <line x1="0" y1="-10" x2="0" y2="-54" stroke="#76448A" stroke-width="0.7" opacity="0.4" transform="rotate(288)"/>
    <!-- Center -->
    <circle r="10" fill="#F5D130"/>
    <circle r="6" fill="#F0C520"/>
    <!-- Stamens -->
    <g stroke="#5B2C6F" stroke-width="0.9" fill="#F5D130">
      <line x1="0" y1="-10" x2="0" y2="-24"/><circle cx="0" cy="-25" r="2.2"/>
      <line x1="9.5" y1="-5.5" x2="22" y2="-13"/><circle cx="23" cy="-14" r="2.2"/>
      <line x1="9.5" y1="5.5" x2="22" y2="13"/><circle cx="23" cy="14" r="2.2"/>
      <line x1="0" y1="10" x2="0" y2="24"/><circle cx="0" cy="25" r="2.2"/>
      <line x1="-9.5" y1="5.5" x2="-22" y2="13"/><circle cx="-23" cy="14" r="2.2"/>
      <line x1="-9.5" y1="-5.5" x2="-22" y2="-13"/><circle cx="-23" cy="-14" r="2.2"/>
      <line x1="5" y1="-9" x2="12" y2="-22"/><circle cx="13" cy="-23" r="2.2"/>
      <line x1="-5" y1="-9" x2="-12" y2="-22"/><circle cx="-13" cy="-23" r="2.2"/>
    </g>
  </g>
</svg>
