<?xml version="1.0" encoding="utf-8" ?><svg xmlns="http://www.w3.org/2000/svg" xmlns:xlink="http://www.w3.org/1999/xlink" width="1024" height="1024" viewBox="0 0 1024 1024"><path fill="#0D3021" d="M0 0L185.684 0L837.875 0L1024 0L1024 180.737L1024 840.305L1024 1024L844.286 1024L180.539 1024L0 1024L0 843.418L0 180.142L0 0Z"/><path fill="#AAA9A9" d="M844.286 1024C850.123 1022.46 863.049 1021.23 870.958 1019.5C898.636 1013.29 924.69 1001.31 947.416 984.333C983.414 957.034 1008.72 917.994 1018.94 873.987C1021.97 860.985 1022.2 852.845 1024 840.305L1024 1024L844.286 1024Z"/><path fill="#AAA9A9" d="M837.875 0L1024 0L1024 180.737C1022.59 174.38 1022.01 164.488 1020.46 156.789C1014.8 127.962 1002.67 100.798 984.976 77.3451C957.68 41.1996 918.622 15.7179 874.542 5.29821C860.885 2.13255 851.193 1.90951 837.875 0Z"/><path fill="#AAA9A9" d="M0 843.418C1.79362 855.286 2.58299 865.7 5.67028 877.453C16.8033 919.834 42.4477 959.276 77.7417 985.319C100.886 1002.23 127.334 1014.09 155.363 1020.1C162.006 1021.48 176.101 1022.81 180.539 1024L0 1024L0 843.418Z"/><path fill="#AAA9A9" d="M0 0L185.684 0C179.749 0.959168 173.215 1.30473 167.17 2.06057C160.075 3.01154 153.038 4.34474 146.087 6.05434C75.0798 23.269 18.6943 82.4948 4.05879 153.642C2.32625 162.064 1.91668 172.501 0 180.142L0 0Z"/><path fill="#A3821B" d="M508.558 95.5537C513.202 95.2499 516.898 95.5089 520.942 98.082C525.012 100.708 527.855 104.862 528.83 109.608C529.741 114.298 528.755 119.158 526.086 123.121C523.008 127.776 519.345 129.514 514.171 130.517L514.217 218.482C531.598 218.319 547.71 220.39 564.8 223.323C703.052 247.056 805.137 369.81 806.891 510.508C835.455 510.373 864.019 510.386 892.582 510.547C894.253 504.285 896.348 499.365 902.885 496.683C912.689 492.661 923.339 496.065 927.162 506.409C928.853 510.855 928.614 515.805 926.502 520.067C924.354 524.427 920.546 527.741 915.932 529.268C911.422 530.798 906.484 530.441 902.241 528.278C896.385 525.258 894.752 521.227 893.04 515.472L807.007 515.657L807.016 516.265C807.675 588.393 774.887 665.945 724.374 717.162C668.53 773.784 594.048 807.894 514.077 808.393L514.166 893.364C520.124 895.121 524.696 897.797 527.588 903.562C529.761 907.818 530.082 912.781 528.477 917.281C526.543 922.635 522.76 925.556 517.745 927.78C511.784 928.733 507.034 929.369 501.533 925.705C497.774 923.19 495.193 919.261 494.377 914.812C492.399 904.333 498.72 895.66 509.057 893.649L508.925 808.213C431.744 807.162 358.075 775.789 303.834 720.872C249.048 665.75 217.5 593.725 217.671 515.656L130.836 515.54C129.418 522.091 126.72 526.76 120.008 529.128C115.38 530.711 110.312 530.371 105.937 528.185C91.0938 520.833 94.2042 499.924 108.753 495.618C120.403 492.17 128.567 499.947 131.526 510.37L217.832 510.494C218.687 433.375 249.441 359.598 303.617 304.707C358.093 250.019 431.946 219.032 509.134 218.476L508.953 130.565C506.895 130.011 504.111 129.123 502.288 128.068C498.394 125.826 495.591 122.082 494.537 117.714C491.864 106.743 498.032 98.2893 508.558 95.5537Z"/><path fill="#0D3021" d="M297.877 538.444C309.027 532.043 323.091 523.887 333.977 517.706C339.442 514.603 368.85 515.571 376.926 515.47C380.437 553.475 394.341 581.51 423.264 607.293C443.044 624.926 482.351 639.852 508.989 637.648L509.052 672.765C489.323 668.26 472.823 677.012 470.383 698.407C472.556 693.551 474.255 689.307 477.929 685.303C486.253 676.232 497.725 674.669 509.18 677.24C509.323 689.139 509.344 701.04 509.243 712.94C504.483 717.937 502.736 720.796 500.387 727.236C499.505 723.661 499.029 721.831 497.105 718.526C492.498 710.755 484.965 705.158 476.196 702.99C458.338 698.504 442.715 706.072 438.753 725.099C438.302 722.656 438.034 720.198 437.105 717.875C433.661 709.411 427.065 702.615 418.708 698.918C403.699 692.362 392.092 696.204 385.581 711.682C385.087 710.233 384.55 708.798 383.971 707.381C376.774 689.782 347.495 670.588 337.944 696.695C337.544 695.481 337.098 694.283 336.607 693.102C331.403 680.432 307.029 654.387 298.023 677.485L297.639 678.027C295.908 674.858 294.285 670.594 292.474 667.722C286.537 658.304 279.656 650.045 269.458 645.368C276.286 624.655 263.343 599.636 245.816 588.442C252.794 576.309 253.863 564.393 250.128 550.998C247.692 542.263 244.489 535.617 235.925 531.611C240.441 526.09 241.799 522.198 244.317 515.514L309.512 515.572C305.306 523.206 301.33 530.422 297.877 538.444Z"/><path fill="#A3821B" d="M260.527 561.138C287.613 560.961 295.813 595.408 281.242 613.767C280.232 615.039 278.658 616.571 277.026 616.666C290.056 599.684 284.781 572.764 263.886 564.3C261.649 563.394 258.028 563.748 255.554 562.668C257.314 561.626 258.485 561.551 260.527 561.138Z"/><path fill="#A3821B" d="M312.172 655.457C312.436 654.725 312.705 653.995 312.98 653.267C322.156 629.012 348.291 649.066 354.123 664.448C356.886 669.842 357.378 676.876 357.552 682.875C355.881 678.748 354.624 674.501 353.294 670.252C346.402 659.852 339.072 645.999 323.666 646.343C318.174 646.465 314.893 651.358 312.172 655.457Z"/><path fill="#AE8323" d="M353.294 670.252L354.983 671.847L354.798 671.581L355.658 671.347C355.413 669.943 353.979 666.27 353.43 664.743L354.123 664.448C356.886 669.842 357.378 676.876 357.552 682.875C355.881 678.748 354.624 674.501 353.294 670.252Z"/><path fill="#A3821B" d="M375.539 658.142C383.449 657.623 391.258 660.153 397.363 665.211C405.95 672.319 409.829 682.522 410.902 693.338C407.622 685.107 406.241 681.607 400.945 674.702C398.805 672.11 396.32 669.824 393.558 667.908C387.641 663.829 380.051 661.119 372.819 662.64C365.138 664.256 362.523 669.703 358.596 675.598C361.594 665.961 364.988 660.098 375.539 658.142Z"/><path fill="#A3821B" d="M435.346 667.689C455.002 668.731 465.031 679.716 468.168 698.559C464.017 688.257 461.251 683.618 451.974 677.163C435.201 667.804 422.261 670.543 413.475 688.346C415.734 675.81 422.676 668.965 435.346 667.689Z"/><path fill="#A3821B" d="M281.168 620.539C298.617 619.306 314.137 647.08 311.175 662.563C310.764 664.706 310.7 667.613 310.523 669.836C310.25 666.248 309.507 662.425 308.894 658.859C306.413 646.78 300.653 635.074 290.701 627.552C282.476 621.335 277.788 624.033 272.643 631.117C274.826 624.942 275.268 623.639 281.168 620.539Z"/><path fill="#0D3021" d="M392.66 294.451C397.384 275.482 419.947 264.771 437.218 275.025C443.44 278.719 444.789 282.966 446.242 289.509C430.531 287.459 410.381 296.889 409.171 314.84C409.043 316.739 410.983 322.137 412.559 323.32C412.726 323.192 412.894 323.065 413.061 322.937C412.936 318.07 413.051 314.182 415.487 309.752C423.273 295.585 444.711 290.311 458.523 298.261C465.626 302.35 468.654 307.401 470.718 314.993C467.259 315.3 464.09 315.614 460.665 316.267C446.53 318.958 425.798 335.544 436.479 351.343L437.42 351.732C437.941 350.543 437.723 350.526 437.717 349.354C437.628 332.241 455.903 320.995 471.445 320.735C483.438 320.534 493.783 325.48 498.715 336.9C499.211 340.19 499.586 342.884 499.839 346.199C501.754 338.162 503.193 332.538 508.891 326.237L509.192 390.06C501.184 390.017 493.094 389.9 485.14 390.891C434.324 397.221 390 423.568 354.163 459.101C343.538 469.709 333.709 481.085 324.755 493.137C320.631 498.719 316.634 505.058 312.57 510.435L245.882 510.578C248.705 497.995 248.054 483.86 237.49 474.872C244.723 470.46 251.526 461.774 254.685 454.035C255.907 451.571 257.401 447.502 258.466 444.836C258.879 444.967 259.291 445.102 259.703 445.239C277.885 451.326 279.52 473.856 268.178 486.896C262.549 493.368 257.39 494.063 250.091 497.435C279.575 495.442 292.353 457.307 265.091 443.316L265.353 442.78C265.447 440.021 261.536 433.867 260.782 429.911C259.722 424.351 260.101 422.988 260.584 417.278C262.134 415.187 264.465 412.604 266.307 410.519C270.914 405.303 276.413 400.27 283.114 397.949C284.132 397.596 288.99 397.366 290.284 397.295L287.031 394.403L285.094 394.918C283.414 393.092 283.27 393.015 282.448 390.738C284.13 387.438 280.968 385.2 283.551 381.147C285.058 376.661 286.202 372.077 289.216 368.333C296.91 358.774 305.302 353.293 317.774 355.524C316.354 354.458 315.502 354.366 313.774 353.776C303.862 335.879 328.403 308.382 349.776 314.463C345.203 311.543 342.328 308.56 344.46 302.51C349.393 288.513 366.216 278.398 380.867 282.099C383.475 282.758 386.981 285.134 390.176 286.062C389.491 289.176 389.901 291.341 390.494 294.481C378.955 295.543 368.793 299.194 361.296 308.263C353.291 317.948 352.024 327.089 361.201 336.177C344.35 334.925 325.791 348.312 323.81 365.835C323.14 371.771 326.911 376.068 330.53 380.388C328.685 370.306 326.85 364.635 333.34 355.405C342.193 342.812 359.759 335.277 374.225 341.963C370.173 338.363 367.244 337.524 362.01 336.286C361.815 333.971 359.78 330.574 359.617 328.077C358.642 313.148 374.57 301.742 387.885 299.836C399.75 298.138 403.377 302.499 411.57 308.479C404.982 298.472 403.112 298.568 392.66 294.451Z"/><path fill="#AE8323" d="M282.448 390.738C284.13 387.438 280.968 385.2 283.551 381.147C283.403 386.918 283.601 389.319 287.031 394.403L285.094 394.918C283.414 393.092 283.27 393.015 282.448 390.738Z"/><path fill="#A3821B" d="M412.82 324.224C420.819 323.59 428.258 328.564 432.988 334.599C432.425 334.23 431.86 333.866 431.291 333.507C414.634 323.005 393.676 330.639 383.843 346.797C380.659 353.926 380.56 355.896 382.339 363.248C379.43 361.39 376.827 356.165 376.655 352.776C376.375 347.257 379.625 341.26 383.293 337.261C391.255 328.582 401.21 324.766 412.82 324.224Z"/><path fill="#A3821B" d="M325.281 379.596C333.216 378.743 341.099 381.557 347.265 386.494C329.625 378.039 308.626 388.029 303.159 406.617C301.86 412.665 302.892 417.058 304.816 422.754L304.283 422.816C294.47 413.601 296.452 404.491 303.036 393.989C308.203 385.746 315.866 381.548 325.281 379.596Z"/><path fill="#A3821B" d="M373.03 368.068C376.238 367.798 383.815 367.312 386.307 369.159L385.984 369.376C367.736 368.398 353.405 382.215 354.136 400.625C354.694 404.022 356.192 407.075 357.544 410.253L356.306 409.043C341.372 394.593 355.219 372.776 373.03 368.068Z"/><path fill="#A3821B" d="M490.37 348.448C490.839 348.89 490.615 348.57 490.675 349.578C483.084 363.766 470.258 364.845 456.455 360.061L455.006 359.092C456.734 358.367 461.568 359.531 463.89 359.317C474.335 358.352 482.171 354.274 490.37 348.448Z"/><path fill="#A3821B" d="M434.89 350.911C435.132 354.211 432.081 359.163 429.672 361.309C421.885 368.242 413.727 368.952 403.821 368.391C403.716 367.306 409.261 366.464 410.417 366.147C419.591 363.638 428.196 357.521 434.89 350.911Z"/><path fill="#A3821B" d="M302.269 421.875C304.523 428.344 291.347 441.111 284.866 441.233C281.968 441.288 280.225 441.99 277.003 441.947C277.127 441.219 281.187 439.18 282.06 438.742C290.498 434.503 295.766 428.606 302.269 421.875Z"/><path fill="#0D3021" d="M611.149 283.192C616.453 277.806 621.938 274.822 629.767 274.727C637.727 274.707 645.365 277.865 650.987 283.5C656.039 288.609 658.208 293.624 659.12 300.72C651.572 301.787 645.932 303.585 641.051 310.046C640.423 310.882 639.811 311.73 639.216 312.589C645.659 307.377 651.488 303.216 660.227 304.632C677.347 307.405 686.211 320.574 685.078 337.218C678.431 337.268 675.763 337.52 669.618 340.737C686.765 337.583 703.761 347.99 706.65 365.494C707.558 370.792 706.794 376.241 704.464 381.085C702.559 381.335 703.311 380.935 702.022 382.09L701.763 381.649L702.109 381.624L701.864 382.165L702.54 382.278C704.805 382.669 708.384 383.134 710.434 383.904C728.947 390.852 739.485 412.564 724.375 428.726C726.39 427.259 728.557 425.751 730.467 424.168C734.915 435.973 739.561 444.406 751.538 449.746C752.506 450.181 753.484 450.594 754.471 450.984C734.92 456.611 738.873 483.88 750.736 495.16C757.525 501.615 761.827 504.04 771.329 504.214C754.974 499.098 742.483 486.676 745.779 467.825C747.431 458.374 753.913 455.382 761.258 450.85L761.194 450.26C758.961 450.007 757.937 449.828 755.844 449.023C740.955 441.593 737.224 435.299 733.648 419.297C736.986 412.66 736.039 406.459 741.607 401.611C743.522 399.943 745.595 397.839 747.467 396.071C754.814 409.37 759.282 414.851 772.603 422.216C756.39 436.748 771.527 468.856 787.061 478.753C785.9 479.791 784.781 480.875 783.706 482.002C776.209 489.965 775.843 500.32 776.096 510.477C762.04 510.662 747.859 510.502 733.776 510.558C730.809 507.11 727.752 503.742 724.606 500.456C713.143 488.39 700.547 475.787 687.675 465.294C679.415 458.56 670.263 451.651 661.419 445.731C656.188 442.23 649.742 439.073 644.463 435.684C615.246 416.921 584.159 402.893 550.15 395.381C537.14 392.507 527.588 390.375 513.802 390.01L513.983 356.331C526.482 362.406 532.937 362.889 545.779 356.895C532.324 358.488 525.659 356.81 513.948 350.16L513.967 323.164C534.751 315.102 555.324 323.882 555.047 348.359C558.957 339.659 559.938 331.201 569.142 325.923C590.537 313.656 616.751 331.743 611.221 356.252C618.99 345.958 617.534 337.502 609.591 327.702C603.532 320.226 595.185 316.963 585.766 316.439C584.315 316.358 584.911 316.464 583.895 315.418C585.678 304.749 595.77 297.995 606.019 297.072C613.895 296.416 621.691 299.044 627.563 304.333C633.422 309.536 636.019 315.721 636.474 323.384C635.138 325.325 627.227 326.712 624.233 328.057C631.431 327.616 635.38 326.731 642.023 329.994C656.453 337.082 664.303 353.912 657.264 368.944C660.134 366.286 663.51 362.562 664.191 358.661C667.383 340.376 653.613 328.465 638.104 324.657L638.227 324.398C644.21 312.018 634.922 300.283 624.171 294.622C619.471 292.147 614.997 291.451 609.774 290.917C610.072 288.533 610.703 285.598 611.149 283.192Z"/><path fill="#A3821B" d="M662.164 369.661C677.721 367.483 693.683 381.99 694.622 397.236C695.065 404.43 693.229 407.888 688.949 413.185L688.483 413.282C687.986 412.16 689.15 409.231 689.419 407.701C692.052 392.734 681.659 377.447 667.81 372.264C666.013 371.592 660.929 371.006 658.771 370.596C659.664 369.783 660.712 369.896 662.164 369.661Z"/><path fill="#A3821B" d="M608.082 356.252C628.646 351.757 651.452 376.974 638.957 396.635C638.305 397.211 638.347 397.118 637.559 397.527C637.087 396.172 637.646 392.926 637.865 391.386C640.034 376.158 627.299 360.511 612.618 357.5C611.025 357.174 609.329 357.354 607.633 357.123L608.082 356.252Z"/><path fill="#A3821B" d="M560.515 342.949C561.681 343.883 563.087 345.968 564.274 347.108C571.309 353.861 579.994 359.435 589.827 360.743C591.01 360.901 594.237 360.805 594.959 361.333C580.981 366.309 564.031 357.956 560.515 342.949Z"/><path fill="#0D3021" d="M513.932 637.517C535.706 637.915 573.724 626.954 591.314 614.264C624.428 590.374 653.063 564.227 697.937 571.221C725.466 575.511 744.219 588.269 760.807 610.802C755.763 620.917 755.805 623.516 752.653 633.573C751.712 629.189 750.369 623.854 746.321 621.665C733.456 614.709 716.756 633.148 711.567 642.947C706.728 652.084 704.81 658.734 704.852 668.185L705.075 667.668C706.955 663.218 708.105 658.497 710.042 654.091C714.776 643.326 722.97 631.662 734.03 626.75C740.992 623.657 746.848 624.475 749.252 632.26C751.122 638.314 751.313 644.657 753.255 650.589C753.551 644.558 753.658 639.999 755.353 634.152C757.124 626.612 759.381 621.433 763.356 614.8C764.898 618.136 766.077 620.949 768.169 623.983C771.211 615.441 774.168 606.03 777.289 597.709L782.609 596.319C775.807 616.981 769.131 633.492 758.343 652.245C756.589 651.041 754.699 649.682 752.89 648.596C736.883 654.205 725.138 669.108 720.36 685.114L719.922 684.9C717.608 674.766 711.423 669.626 700.92 673.087C686.91 677.703 675.522 690.383 672.419 704.821C668.213 690.229 659.665 684.169 643.997 689.039C634.598 691.961 625.393 700.296 621.08 709.184C619.844 711.768 618.945 714.5 618.405 717.314C617.064 713.294 616.264 710.61 613.701 707.132C606.121 696.845 593.417 697.292 582.495 701.126C574.091 704.075 568.034 710.889 564.324 718.887C563.86 719.913 563.44 720.959 563.065 722.022L562.921 722.554L562.377 722.823C554.617 701.58 532.127 698.785 513.994 708.056C514.042 698.452 514.034 688.848 513.972 679.244C524.179 684.431 527.029 688.962 532.371 698.871C529.396 686.213 525.402 680.237 513.875 673.937C514.087 661.966 513.93 649.523 513.932 637.517Z"/><path fill="#A3821B" d="M622.529 661.121C638.779 659.118 644.732 668.655 647.863 682.574C646.678 680.81 645.622 678.522 644.505 676.655C636.003 662.456 624.055 663.581 611.007 670.081C599.941 676.955 596.966 683.075 592.761 694.815C593.481 676.804 605.179 664.683 622.529 661.121Z"/><path fill="#A3821B" d="M560.682 670.088C571.73 669.421 582.039 671.497 587.493 682.619C588.424 684.517 589.997 687.861 589.27 689.848C583.751 676.772 571.21 672.564 558.035 675.586C544.653 678.898 538.941 688.383 534.488 700.385C536.536 683.891 544.387 673.907 560.682 670.088Z"/><path fill="#A3821B" d="M683.885 647.683C696.641 648.107 699.029 655.561 701.291 666.566C699.856 663.509 698.465 660.251 696.153 657.767C685.435 646.252 670.148 655.331 661.209 663.925C655.244 670.384 653.131 674.905 650.042 683.063C650.709 674.729 652.743 668.707 657.995 662.12C664.34 654.031 673.668 648.829 683.885 647.683Z"/><path fill="#0D3021" d="M514.031 515.557L605.729 515.433C603.818 537.792 594.288 555.166 579.012 571.009C559.576 590.033 540.257 595.787 514.022 597.554L514.031 515.557Z"/><path fill="#0D3021" d="M416.193 515.573L509.029 515.592L509.207 597.51C481.554 597.568 453.709 583.889 437.009 561.999C425.661 547.124 420.286 533.412 416.193 515.573Z"/><path fill="#0D3021" d="M489.779 452.207C494.813 451.662 503.945 452.052 509.073 452.234C508.999 471.643 509.036 491.052 509.183 510.46L436.381 510.447C429.606 510.419 422.906 510.426 416.134 510.136C416.743 494.598 417.629 488.443 422.405 473.909C442.844 461.478 465.927 454.042 489.779 452.207Z"/><path fill="#0D3021" d="M514.054 452.901C556.088 455.899 602.38 479.478 635.643 504.286C637.242 505.479 642.118 508.547 642.646 510.14C632.784 510.713 617.154 510.115 606.776 510.193L514.011 510.462L514.054 452.901Z"/><path fill="#0D3021" d="M619.089 722.399C621.044 715.867 622.535 712.461 627.015 706.761C635.017 696.418 654.218 686.591 665.667 696.871C669.849 700.627 671.986 706.523 672.163 712.026C669.935 714.033 663.276 715.997 660.295 717.891C653.934 721.935 649.543 727.011 645.92 733.61C644.963 735.318 643.733 738.274 642.726 739.589C640.394 723.48 623.58 720.236 610.726 726.261C598.735 731.88 593.128 738.952 588.556 751.076C582.393 731.089 564.103 728.072 547.06 736.962C539.958 740.666 535.14 747.678 533.072 755.404C530.191 748.185 526.304 740.962 518.504 738.114C517.14 737.154 515.3 736.545 513.713 735.926C513.935 728.939 513.707 721.231 513.624 714.183C531.563 702.99 558.927 706.921 562.306 731.499C562.857 728.995 563.814 726.384 564.631 723.934C576.12 700.529 607.777 693.133 619.089 722.399Z"/><path fill="#0D3021" d="M588.7 757.172C589.133 756.028 589.586 754.892 590.058 753.764C594.504 743.207 601.997 735.269 612.667 730.708C622.342 726.572 633.865 728.458 639.724 737.877C641.066 740.035 641.546 743.088 642.459 745.487L642.746 746.228C642.607 746.855 642.505 748.205 641.97 748.345C627.605 752.102 620.426 756.937 611.662 770.125C605.717 755.996 589.603 755.211 577.353 760.737C568.517 764.724 562.734 770.867 558.112 779.178C547.972 762.207 530.511 761.043 514.003 769.025L513.97 741.631C523.798 746.022 528.081 750.746 532.017 760.801L532.717 762.886L533.208 762.833C533.485 761.44 534.259 756.689 534.744 755.673C541.635 741.242 560.738 733.062 575.538 740.189C583.361 743.957 586.111 749.472 588.7 757.172Z"/><path fill="#0D3021" d="M338.928 699.244C340.851 695.276 343.518 690.885 347.999 689.965C368.837 685.686 381.575 706.427 386.061 721.716L386.2 722.198C386.014 689.738 427.022 699.42 435.986 720.733C437.311 723.884 438.388 727.239 439.501 730.477C428.333 731.576 416.664 735.719 415.818 748.945C414.88 748.681 412.074 741.575 410.865 739.497C406.673 732.4 400.489 726.691 393.081 723.079C379.793 716.581 366.83 719.744 360.722 733.676C357.749 726.114 352.077 719.711 345.741 714.738C343.348 712.86 340.875 711.881 340.07 708.938C339.626 705.666 339.182 702.54 338.928 699.244Z"/><path fill="#0D3021" d="M513.939 267.404C515.769 266.215 517.451 265.291 519.528 264.569C526.228 262.268 533.567 262.715 539.938 265.814C548.502 270.038 551.726 276.351 554.629 284.761C562.064 267.384 581.742 260.93 597.543 272.282C601.266 274.956 603.559 279.513 606.356 283.059C606.981 285.845 607.572 288.31 607.9 291.163C596.663 292.625 590.408 296.163 584.793 306.221C582.981 300.279 581.348 297.106 576.224 293.091C570.515 286.279 556.013 283.894 547.728 286.537C538.208 289.575 533.354 293.995 528.626 302.543C524.746 294.746 521.759 290.952 513.577 287.165C513.661 280.578 513.782 273.99 513.939 267.404Z"/><path fill="#0D3021" d="M685.865 315.292C707.787 311.982 724.664 329.5 721.719 351.055C718.384 352.122 714.634 353.233 711.4 354.47C713.062 354.306 717.874 353.592 719.273 353.721C735.628 355.232 756.403 379.386 744.795 395.011C742.572 398.003 738.396 399.346 734.868 400.481C728.403 386.66 721.866 382.512 706.869 380.212C717.687 369.929 710.851 352.084 700.74 344.004C696.268 340.43 691.917 339.097 686.642 337.195C691.412 329.337 689.878 323.048 685.865 315.292Z"/><path fill="#0D3021" d="M468.203 750.678C468.028 750.273 467.847 749.87 467.659 749.47C461.734 736.902 452.622 734.415 440.764 730.072C439.978 728.289 439.829 725.678 440.488 723.856C445.644 709.591 463.942 703.988 477.416 708.348C488.836 712.044 494.132 718.015 499.488 728.01L500.387 731.569C501.26 730.531 502.153 727.871 502.845 726.423C504.391 723.148 506.449 720.141 508.942 717.514L508.993 734.433C491.549 731.685 476.219 737.326 469.757 754.675C469.28 753.459 468.611 751.882 468.203 750.678Z"/><path fill="#0D3021" d="M557.708 335.278C552.561 319.582 543.84 317.19 529.461 313.736C525.169 296.193 567.463 275.794 581.705 310.359C581.988 311.869 582.447 313.948 582.636 315.418L582.339 316.436C580.284 317.624 577.214 317.391 574.73 318.288C565.635 321.572 561.851 327.38 557.708 335.278Z"/><path fill="#0D3021" d="M417.066 749.386C427.327 727.152 458.361 735.206 466.822 754.041C468.142 757.519 468.551 759.032 469.347 762.678C459.274 763.666 451.176 768.805 448.442 778.875C443.425 768.403 435.671 761.441 424.586 757.344C422.218 756.469 417.601 755.803 416.134 754.206C415.997 752.212 416.445 751.34 417.066 749.386Z"/><path fill="#0D3021" d="M471.549 264.163C486.186 263.054 497.113 270.475 500.703 284.709C488.099 285.152 478.709 289.193 471.928 300.276C471.078 302.197 470.762 303.488 470.194 305.526C464.972 295.046 458.066 290.804 446.842 289.306C449.703 274.325 455.815 266.481 471.549 264.163Z"/><path fill="#0D3021" d="M375.398 726.089C394.573 724.434 408.893 737.517 414.574 754.963C407.744 755.062 403.185 756.361 397.873 760.689C396.164 762.378 395.185 763.634 393.699 765.489C386.241 754.028 376.59 747.227 363.019 745.292C362.827 734.456 364.233 729.304 375.398 726.089Z"/><path fill="#0D3021" d="M672.455 712.224C676.562 698.389 684.503 685.46 698.219 679.135C706.504 675.314 714.769 676.061 718.266 685.4C719.053 688.896 718.873 692.374 718.867 695.965C706.518 702.293 699.287 710.304 692.905 722.616C689.303 711.388 682.276 711.983 672.455 712.224Z"/><path fill="#0D3021" d="M738.443 515.469C751.207 515.583 763.972 515.584 776.736 515.47C779.053 524.643 781.144 531.208 788.058 537.901C781.883 542.081 778.885 546.582 775.918 553.229C774.248 557.399 773.565 562.338 772.785 566.792C763.857 546.11 752.648 532.76 738.443 515.469Z"/><path fill="#0D3021" d="M676.264 717.153C681.013 716.959 681.53 717.473 685.458 718.873C689.523 720.322 692.933 728.841 690.434 731.346C685.909 735.883 665.216 752.453 660.239 753.763C654.791 749.145 650.136 748.537 643.413 748.465C648.796 732.574 658.49 719.493 676.264 717.153Z"/><path fill="#0D3021" d="M500.465 739.209C503.272 739.18 506.15 739.521 508.956 739.776L509.016 773.601C507.227 776.152 505.825 778.738 504.295 781.448C500.245 775.216 497.868 772.421 491.692 768.305C484.148 764.006 478.118 763.165 469.655 762.517C474.224 747.03 484.861 740.2 500.465 739.209Z"/><path fill="#0D3021" d="M468.421 769.15C487.125 766.953 497.329 776.096 504.738 792.113C505.031 789.964 505.827 783.284 507.881 782.522C509.518 784.593 509.267 793.282 509.328 796.313C506.171 796.544 504.318 796.794 501.371 795.629C491.159 791.088 481.615 788.7 470.3 789.204C461.252 789.608 457.511 791.917 448.831 789.224C451.423 777.551 456.332 771.353 468.421 769.15Z"/><path fill="#0D3021" d="M471.231 315.041C474.067 296.612 491.756 287.181 508.966 291.926L509.171 319.902C502.982 325.464 503.506 329.508 499.885 333.549C496.606 320.524 483.422 315.129 471.231 315.041Z"/><path fill="#0D3021" d="M299.09 678.592C300.318 676.293 302.571 673.161 305.176 672.924C321.73 671.421 336.307 697.568 339.077 708.918C336.947 710.938 329.19 703.744 320.585 713.258C315.111 703.84 308.474 696.914 299.121 691.417C298.823 687.693 298.216 682.142 299.09 678.592Z"/><path fill="#0D3021" d="M550.734 242.168C563.955 241.306 573.139 248.452 577.631 260.349C576.284 260.54 574.943 260.777 573.612 261.059C565.133 262.92 560.649 267.821 556.328 274.757L555.759 274.795C549.497 262.426 542.976 257.451 528.832 256.367C534.144 246.704 540.168 243.415 550.734 242.168Z"/><path fill="#0D3021" d="M447.352 245.177C459.641 244.636 464.485 247.984 471.38 257.688C459.455 259.805 450.331 264.838 445.23 276.384C445.003 276.803 445.182 276.513 444.541 277.139C443.629 276.081 443.353 275.42 442.564 274.414C437.418 267.852 429.981 266.442 422.413 265.342C426.454 253.343 435.004 246.578 447.352 245.177Z"/><path fill="#0D3021" d="M587.17 763.621C595.101 762.891 602.308 763.496 607.051 771.173C608.265 773.139 609.543 776.322 608.943 778.648C606.642 780.915 598.046 781.567 594.669 781.733C587.017 782.108 580.771 783.412 573.555 785.955C567.779 788.18 562.942 791.143 556.832 793.285C560.926 777.078 570.62 767.079 587.17 763.621Z"/><path fill="#0D3021" d="M528.712 770.103C544.157 769.473 558.044 775.922 556.593 793.696C552.008 792.769 547.44 791.758 542.892 790.663L541.185 790.467C530.826 789.249 523.531 790.589 513.651 793.387C513.41 787.79 513.553 781.863 513.593 776.237C519.219 772.712 522.286 771.389 528.712 770.103Z"/><path fill="#0D3021" d="M409.939 761.126C428.016 760.137 443.592 772.277 448.75 789.331C444.812 788.474 440.627 787.167 436.731 786.036C424.946 782.726 406.306 776.067 395.552 770.984L396.326 769.755C399.687 764.501 404.103 762.376 409.939 761.126Z"/><path fill="#0D3021" d="M598.64 248.149C612.597 247.759 622.745 256.301 627.372 268.875C618.644 271.34 615.385 272.82 609.964 280.213C606.179 270.257 599.214 263.272 588.424 260.788C585.861 260.198 582.16 261.011 580.628 259.527C581.247 252.177 592.626 248.947 598.64 248.149Z"/><path fill="#0D3021" d="M403.676 253.907C408.648 254.113 414.911 255.166 418.712 258.813C420.372 260.405 420.081 262.354 419.905 264.483L419.276 265.327C405.364 265.804 396.407 274.44 390.176 286.062C387.509 280.175 379.721 278.142 373.981 276.727C378.86 264.119 389.981 254.992 403.676 253.907Z"/><path fill="#0D3021" d="M302.031 323.107C305.014 323.389 308.006 323.822 310.977 324.221C310.612 341.502 296.671 360.359 280.235 365.52C277.232 366.102 274.152 366.053 271.08 366.135C279.866 349.735 290.333 337.389 302.031 323.107Z"/><path fill="#0D3021" d="M672.243 284.174C685.393 285.776 699.885 298.423 701.257 312.05C695.939 311.834 693.054 311.439 687.944 313.186C685.604 314.478 685.614 314.736 684.055 312.878C676.739 304.165 672.5 301.808 661.26 300.524C663.108 294.479 662.725 292.983 660.794 287.219C665.307 285.309 667.468 284.749 672.243 284.174Z"/><path fill="#0D3021" d="M246.271 420.369C256.483 420.788 256.793 433.383 255.624 440.925C253.928 451.876 249.436 461.261 240.505 467.95C237.098 469.944 236.102 470.226 232.382 471.439C235.178 457.407 239.355 432.243 246.271 420.369Z"/><path fill="#0D3021" d="M273.438 371.709C274.153 371.667 275.239 371.714 275.989 371.721C283.216 375.823 276.431 391.369 273.387 396.804C268.628 405.301 262.085 411.292 252.575 413.982C251.136 414.342 248.957 414.682 247.442 414.97C250.906 403.727 261.04 382.069 267.58 372.399C269.368 372.075 271.596 371.905 273.438 371.709Z"/><path fill="#0D3021" d="M494.496 241.619C500.961 241.234 503.532 241.038 509.581 243.852C508.887 250.411 509.038 257.435 509.028 264.055C504.99 268.098 503.816 269.829 501.177 274.883C499.581 271.343 499.174 270.757 496.912 267.687C489.78 260.247 484.459 258.253 474.123 257.818C478.645 248.751 484.613 244.074 494.496 241.619Z"/><path fill="#0D3021" d="M327.122 714.102C344.903 712.601 357.398 729.481 361.555 744.982L356.729 745.643C355.351 746.477 354.896 746.938 353.288 746.876C346.089 742.481 338.921 736.048 332.084 730.974C327.483 727.56 323.14 722.77 323.616 716.661C324.793 714.765 324.724 715.258 327.122 714.102Z"/><path fill="#0D3021" d="M779.215 424.357L780.3 424.524C783.822 428.482 791.668 467.556 792.176 475.683C789.517 474.811 788.061 474.214 785.556 473.087C772.111 463.872 764.233 435.508 779.215 424.357Z"/><path fill="#0D3021" d="M750.44 370.709C750.862 370.649 751.284 370.594 751.707 370.543C753.263 370.356 755.622 370.102 756.573 371.335C762.041 378.42 776.747 410.448 777.563 417.599C776.635 418.324 776.363 418.048 774.869 418.061C761.559 413.076 756.624 405.267 749.899 393.219C755.814 380.07 749.151 374.663 750.44 370.709Z"/><path fill="#0D3021" d="M240.943 593.612C255.709 596.901 270.97 628.789 265.698 641.824C264.065 643.265 263.606 643.999 261.523 643.143C255.117 635.899 243.339 603.461 240.943 593.612Z"/><path fill="#0D3021" d="M230.447 536.73C241.349 540.28 244.808 550.779 247.183 561.115C248.839 568.321 248.593 576.892 244.353 583.2C242.349 584.982 241.203 585.554 238.914 586.888C234.364 568.801 232.468 555.529 230.447 536.73Z"/><path fill="#0D3021" d="M792.59 541.415C796.475 543.456 786.054 584.333 784.151 589.942C782.174 588.775 781.568 588.194 779.81 586.659C770.553 574.255 777.578 547.021 792.59 541.415Z"/><path fill="#0D3021" d="M751.815 654.61L757.271 654.43C751.51 664.519 744.495 674.14 737.706 683.562C734.995 687.326 731.974 691.322 728.43 694.299C728.429 694.299 726.458 694.636 726.268 694.669C724.196 694.89 722.356 695.276 720.317 695.671C725.091 680.305 735.222 659.706 751.815 654.61Z"/><path fill="#0D3021" d="M345.17 284.926L345.678 285.012C349.005 290.19 339.774 301.449 336.292 305.161C328.24 313.745 320.806 318.316 308.878 318.736L307.95 318.455L307.712 317.764C317.214 306.891 333.309 293.107 345.17 284.926Z"/><path fill="#0D3021" d="M488.669 231.714C496.205 231.275 497.896 232.631 504.558 235.995C489.523 235.801 479.559 238.491 472.673 253.187L471.866 253.205C467.817 244.643 463.175 242.385 454.713 239.555C464.433 232.64 476.957 232.458 488.669 231.714Z"/><path fill="#0D3021" d="M519.413 231.635C529.757 230.729 547.054 231.893 556.662 236.385C547.943 236.468 545.242 236.413 537.33 240.153C531.458 244.092 528.593 247.124 526.425 253.862C523.214 246.295 520.849 243.448 513.824 239.392C514.018 233.69 513.382 233.056 519.413 231.635Z"/><path fill="#0D3021" d="M721.469 324.724C727.229 326.188 748.274 357.943 752.412 364.747L747.859 366.892C747.289 366.544 747.556 366.773 747.071 366.1C740.057 356.386 734.109 353.431 722.823 351.25C730.415 339.931 725.345 336.133 721.566 325.518C721.534 325.253 721.502 324.989 721.469 324.724Z"/><path fill="#0D3021" d="M265.712 650.263C282.1 652.93 293.273 677.624 298.505 691.137C296.49 690.792 294.5 690.623 292.467 690.416C285.816 682.351 269.076 659.458 265.712 650.263Z"/><path fill="#0D3021" d="M633.665 259.431C640.649 258.583 664.967 275.106 671.308 279.735L665.098 282.17L659.673 285.022C653.531 274.875 643.41 269.613 631.789 268.904C630.561 263.917 628.961 262.183 633.665 259.431Z"/><path fill="#0D3021" d="M792.052 481.373L792.531 481.654C794.363 485.243 795.279 505.403 795.556 510.487L782.875 510.502C781.547 510.556 781.394 510.703 780.241 510.132C778.661 507.158 779.858 501.303 780.726 498.123C782.809 490.488 785.241 485.489 792.052 481.373Z"/><path fill="#0D3021" d="M643.443 754.169C648.085 753.77 651.327 755.133 655.268 757.135C643.715 763.134 632.899 768.7 621.126 774.251C618.289 775.578 615.419 776.687 612.511 777.845C618.148 765.331 629.721 756.024 643.443 754.169Z"/><path fill="#0D3021" d="M231.729 477.653C240.128 480.213 246.267 506.091 241.992 510.54L229.481 510.575C229.432 499.95 230.481 488.174 231.729 477.653Z"/><path fill="#0D3021" d="M376.427 493.532C377.132 494.53 376.542 508.211 376.519 510.577C367.674 510.545 357.854 510.703 349.107 510.127L348.275 509.741C349.852 507.902 372.53 495.691 376.427 493.532Z"/><path fill="#0D3021" d="M779.859 515.437L795.318 515.497C795.067 521.634 794.655 527.763 794.085 533.878L793.715 534.687C787.581 536.162 781.54 526.517 780.761 521.432C780.418 519.199 780.044 517.767 779.859 515.437Z"/><path fill="#0D3021" d="M513.867 294.091C519.173 296.636 523.447 300.923 525.976 306.237C526.89 308.207 528.42 311.949 527.705 314.023L526.527 314.275C521.138 314.601 518.91 315.395 513.915 317.295L513.867 294.091Z"/><path fill="#0D3021" d="M562.69 236.649C572.859 235.8 583.861 239.59 593.639 242.641L585.893 247.308C583.231 249.392 582.026 251.032 579.885 253.639C577.157 248.448 573.484 243.086 568.112 240.27C566.107 239.219 563.387 238.767 562.054 237.313L562.69 236.649Z"/><path fill="#0D3021" d="M723.017 700.075C723.325 700.358 723.14 700.137 723.244 700.909C716.476 708.166 703.383 720.985 696.055 727.387L695.768 727.047C696.244 717.486 713.832 702.904 723.017 700.075Z"/><path fill="#0D3021" d="M235.077 515.768L241.987 515.57C240.024 522.01 239.386 524.615 234.814 529.688C233.304 530.57 232.086 530.835 230.493 530.259C228.622 527.852 229.355 519.597 229.333 515.972L235.077 515.768Z"/><path fill="#0D3021" d="M408.736 249.542C416.783 246.846 424.882 244.308 433.029 241.931L434.059 243.408C427.925 247.053 424.261 250.123 421.43 256.837C416.851 253.163 414.143 251.994 408.736 249.542Z"/><path fill="#0D3021" d="M360.96 751.492C372.878 750.951 385.489 759.801 392.207 769.06C389.313 768.168 363.762 753.523 360.96 751.492Z"/><path fill="#0D3021" d="M369.278 269.401L369.886 269.476C370.561 271.123 370.037 274.543 369.901 276.571C363.123 277.68 358.673 279.402 352.723 282.608C352.127 282.815 352.479 282.785 351.679 282.417L351.982 281.061C355.242 276.869 364.577 271.907 369.278 269.401Z"/><path fill="#0D3021" d="M514.171 245.728C517.566 248.17 521.877 252.641 523.706 256.427L523.408 257.163L520.624 258.094C518.795 258.41 515.665 259.802 513.826 260.541C514.078 255.807 514.072 250.509 514.171 245.728Z"/><path fill="#0D3021" d="M509.339 270.365C509.709 273.765 509.046 281.601 508.977 285.705C506.714 285.247 504.94 285.05 502.656 284.794C502.133 284.513 502.458 284.748 502 283.785C502.977 278.596 505.961 274.289 509.339 270.365Z"/><path fill="#0D3021" d="M313.139 713.282C310.32 710.403 300.073 700.505 299.199 697.671L300.169 697.787L299.452 698.319L299.634 698.614L300.491 697.94C306.585 701.434 310.294 705.852 314.675 711.248C313.297 712.282 313.808 711.641 313.139 713.282Z"/><path fill="#0D3021" d="M704.522 306.162C708.181 307.988 715.715 316.236 718.304 319.643C714.948 319.198 709.224 314.394 704.485 312.444L704.522 306.162Z"/><path fill="#18280C" d="M278.33 396.32C279.136 394.46 280.178 390.977 281.414 389.897L282.448 390.738C283.27 393.015 283.414 393.092 285.094 394.918C282.988 395.239 280.451 395.863 278.33 396.32Z"/><path fill="#18280C" d="M258.28 439.623L259.231 438.055C262.172 437.927 261.636 441.563 265.353 442.78L265.091 443.316C263.594 442.875 261.418 443.13 259.464 442.868C258.11 441.631 258.542 442.01 258.28 439.623Z"/><path fill="#18280C" d="M433.029 241.931C435.902 241.034 444.751 237.993 447.178 238.614C442.431 240.679 438.872 240.922 434.059 243.408L433.029 241.931Z"/><path fill="#18280C" d="M314.675 711.248C317.322 714.989 318.421 717.167 320.509 721.306C318.072 718.57 315.719 715.887 313.139 713.282C313.808 711.641 313.297 712.282 314.675 711.248Z"/></svg>